<svg id="Layer_2" xmlns="http://www.w3.org/2000/svg" viewBox="0 0 504.19 92"><defs><style>.cls-1{fill:#333;}.cls-2{fill:#f16722;}.cls-2,.cls-3{fill-rule:evenodd;}.cls-3{fill:#fff;}</style></defs><g id="Layer_1-2"><g><g><path class="cls-1" d="M31.68,50.82c0,2.34-.44,4.3-1.31,5.9-.87,1.6-2.05,2.89-3.53,3.87-1.48,.98-3.37,1.69-5.69,2.15-2.31,.45-4.51,.68-6.6,.68h-5.97v15.08H0V38.51H14.79c2.2,0,4.44,.31,6.74,.93,2.29,.62,4.15,1.41,5.57,2.37,1.42,.96,2.54,2.13,3.36,3.5,.81,1.38,1.22,3.21,1.22,5.51Zm-9.16,.06c.04-1.24-.24-2.28-.82-3.11-.59-.83-1.2-1.41-1.85-1.75-.65-.34-1.57-.56-2.79-.68-1.21-.11-2.24-.17-3.07-.17h-5.4v12.26h5.23c.91,0,1.97-.07,3.18-.23,1.21-.15,2.15-.41,2.81-.79,.66-.38,1.27-.95,1.82-1.72,.55-.77,.84-2.04,.88-3.81Z"></path><path class="cls-1" d="M97.82,78.51l-1.65-4.12h-19.62l-1.54,4.12h-8.87l17.46-40h6.03l17.29,40h-9.1Zm-11.37-26.5l-6.94,15.76h13.48l-6.54-15.76Z"></path><path class="cls-1" d="M171.46,78.51l-20.76-26.16h-.17l.23,26.16h-9.44V38.51h6.54l20.7,26.1h.17l-.23-26.1h9.44v40h-6.48Z"></path></g><g><path class="cls-1" d="M334.54,78.51V38.51h23.7v8.19h-15.28v7.51h15.44v7.74h-15.44v8.31h15.33v8.25h-23.76Z"></path><path class="cls-1" d="M434.76,58.35c0,3-.53,5.75-1.58,8.23-1.05,2.49-2.51,4.61-4.38,6.38-1.87,1.77-4.09,3.14-6.66,4.1s-5.36,1.45-8.37,1.45-5.79-.48-8.35-1.45c-2.55-.97-4.77-2.33-6.63-4.1-1.87-1.77-3.33-3.9-4.38-6.38-1.05-2.48-1.58-5.23-1.58-8.23s.52-5.78,1.58-8.23c1.05-2.45,2.51-4.53,4.38-6.25,1.87-1.72,4.08-3.04,6.63-3.97,2.56-.93,5.34-1.39,8.35-1.39s5.8,.47,8.37,1.39,4.79,2.25,6.66,3.97c1.87,1.72,3.32,3.8,4.38,6.25,1.05,2.45,1.58,5.19,1.58,8.23Zm-9.95,0c0-1.64-.27-3.18-.82-4.61-.54-1.43-1.3-2.65-2.26-3.67-.96-1.02-2.12-1.82-3.48-2.41-1.36-.59-2.85-.89-4.48-.89s-3.12,.29-4.46,.89c-1.34,.59-2.5,1.39-3.48,2.41s-1.73,2.24-2.26,3.67c-.53,1.43-.79,2.97-.79,4.61s.27,3.3,.81,4.75c.54,1.45,1.3,2.69,2.26,3.73,.96,1.04,2.11,1.85,3.45,2.44,1.34,.59,2.83,.89,4.46,.89s3.12-.3,4.46-.89c1.34-.59,2.5-1.4,3.48-2.44,.98-1.04,1.74-2.28,2.28-3.73,.54-1.45,.82-3.03,.82-4.75Z"></path><path class="cls-1" d="M497.99,78.53l-19.84-26.16h-.16l.22,26.16h-9.02V38.53h6.25l19.79,26.1h.16l-.22-26.1h9.02v40h-6.2Z"></path></g><g><g><g><path class="cls-1" d="M324.22,24.77c-.42,.7-1.44,1.86-3.58,1.86-1.25,0-2.65-.38-4.44-.87l-.4-.1c-2.5-.68-6.12-1.37-9.23-1.76-3.16-.4-6.82-.6-10.88-.6-2.38,0-4.48,.06-6.19,.13,.06,.11,.1,.23,.15,.34,1.52,3.68,2.46,7.71,2.88,12.32,.35,3.75,.43,7.13,.27,10.05-.08,1.32-.22,3.64-1.72,5.36-.75,.85-1.51,1.7-2.12,2.67-1.15,1.79-2.81,4.6-3.75,7.2-.93,2.56-.72,5.78-.51,9,.02,.26,.04,.49,.06,.73,.14,1.59,.37,4-2.01,6.24l-13.81,13.09c-1.14,1.08-2.27,1.6-3.46,1.6l-18.32-.12c-1.44,0-2.67-.76-3.61-1.54-.11-.08-.22-.17-.32-.27l-13.47-12.76c-.12-.12-.25-.24-.36-.36-1.7-1.82-1.8-3.72-1.7-5.18,0-.04,0-.09,.01-.13,.01-.21,.02-.39,.04-.57,.02-.24,.04-.47,.06-.73,.21-3.22,.41-6.44-.51-9-.94-2.59-2.6-5.4-3.75-7.2-.56-.88-1.24-1.66-1.93-2.44-.01-.01-.02-.01-.03-.02-.05-.07-.11-.13-.17-.21-1.04-1.19-1.42-2.64-1.59-3.87h0c-.01-.12-.02-.24-.03-.36-.07-.77-.12-1.73-.15-2.9-.03-1.88,.01-4.28,.25-7.25,.03-.33,.06-.67,.09-1v-.02c.39-4.37,1.31-8.41,2.72-12.01l.15-.4c.03-.08,.06-.16,.1-.25-1.69-.07-3.78-.13-6.14-.13-4.06,0-7.72,.21-10.88,.6-3.11,.39-6.73,1.09-9.23,1.76l-.41,.1c-1.78,.49-3.19,.87-4.43,.87-2.14,0-3.17-1.16-3.59-1.86-1.27-2.11-.01-4.53,.52-5.56,.83-1.59,1.87-3.28,3.06-5.03,2.6-3.77,9.52-12.54,17.53-12.54h.05l33.85,.14h.43c.36,0,.98,0,1.64,.23,.56-.74,1.4-1.22,2.52-1.42,.64-.12,1.38-.23,2.22-.32h.08l2.51-.18s.05-.01,.08-.01c1.07-.05,2.18-.07,3.32-.07,3.66,0,6.95,.26,9.02,.7,.91,.19,1.64,.64,2.12,1.27,.6-.18,1.18-.18,1.51-.18h.44l33.85-.14h.04c8.02,0,14.93,8.76,17.53,12.54,1.21,1.75,2.23,3.44,3.06,5.03,.54,1.03,1.8,3.44,.52,5.56Z"></path><path class="cls-1" d="M221.43,51.48c.06,.07,.12,.13,.17,.21-1.14-1.04-1.56-2.04-1.76-4.08,.16,1.23,.55,2.69,1.59,3.87Z"></path><path class="cls-1" d="M229.41,76.95c-1.63-1.67-1.88-3.19-1.7-5.18-.1,1.46,0,3.35,1.7,5.18Z"></path></g><path class="cls-1" d="M219.9,37.1c-.24,2.96-.28,5.37-.25,7.25-.05-2.2,.02-4.63,.25-7.25Z"></path><path class="cls-1" d="M219.71,46.12c-.01-.24-.02-.49-.03-.73,.03,.71,.07,1.33,.12,1.86,.01,.12,.02,.24,.03,.35-.07-.55-.1-1.07-.12-1.48Z"></path><path class="cls-1" d="M219.69,45.38c-.01-.33-.03-.67-.04-1.04,0,.36,.02,.7,.04,1.04Z"></path><path class="cls-1" d="M219.98,36.07v.02c-.02,.34-.05,.68-.08,1,.02-.34,.05-.68,.08-1.03Z"></path><path class="cls-1" d="M243.58,90.4l-.34-.33c.1,.09,.21,.18,.32,.27l.02,.06Z"></path></g><g><path class="cls-2" d="M233.94,50.56c-2.03-.74-4.01-1.61-5.95-2.59-1.26-.64-1.34-.7-1.34-2.15v-15c0-1.03,.05-1.22,1-.88,7.87,2.78,14.75,4.31,26.16,4.31,3.73,0,7.35-.22,10.85-.65l5.02-.66c4.58-.96,10.48-2.76,14.51-4.48,1.44-.61,1.7-1.08,1.7,.5v15.84c0,1.08,.07,1.63-.82,2.12-5.37,2.98-11.2,5.05-17.71,6.26-3.08,.57-2.99,1.21-2.99,4.12v28.25c0,1.43,.07,4.89,2.48,2.61l13.81-13.09c1.52-1.44,1.11-2.67,.99-4.55-.2-3.13-.09-6.56,.57-9.81-4.3,3.66-6.42,11.49-6.42,11.49-1.21-8,6.29-17.76,12.61-22.42,1.17-.86,1.27-2.52,1.35-3.86,.12-2.07,.14-5.24-.25-9.59-.51-5.6-1.76-9.23-2.66-11.42-.55-1.33-.92-1.59-2.31-1.97-9.18-2.49-18.75-8.34-19.62-18.56-.04-.5,.09-.59-.38-.69-2.63-.56-7.52-.75-11.56-.56l-2.51,.18c-.73,.07-1.39,.17-1.96,.27-.67,.13-.79,.3-.86,1.01-.99,9.92-10.6,15.8-19.58,18.34-1.95,.55-1.71,.31-2.46,2.23-.89,2.29-2.05,5.98-2.52,11.17-.47,5.16-.35,8.65-.18,10.63,.22,2.57,.45,2,2.23,3.59,5.77,5.17,12.93,13.23,11.65,21.65,0,0-2.13-7.85-6.43-11.5,.76,3.74,.8,7.74,.47,11.22-.14,1.48-.05,2.05,1.02,3.07l13.16,12.48c2.77,2.62,3.47,1.05,3.43-2.19v-28.08c0-2.62,.15-3.23-3.03-3.74-2.45-.39-4.78-.89-7.03-1.51l-4.4-1.41Z"></path><path class="cls-3" d="M243.3,4.85l-33.85-.14c-5.98-.02-11.92,6.7-15.03,11.21-1.28,1.85-2.21,3.43-2.87,4.7-2.03,3.9,.44,3.11,4.37,2.05,2.93-.79,6.75-1.48,9.64-1.84,9.79-1.25,20.3-.23,21.4-.39,.25-.03,.49-.07,.74-.12,7.14-2.5,14.15-7.05,16.47-14.16,.47-1.43,.55-1.31-.87-1.32Z"></path><path class="cls-3" d="M269.22,4.85l33.85-.14c5.98-.02,11.92,6.7,15.03,11.21,1.28,1.85,2.21,3.43,2.87,4.7,2.03,3.9-.44,3.11-4.37,2.05-2.93-.79-6.75-1.48-9.64-1.84-9.79-1.25-20.3-.23-21.4-.39-.25-.03-.49-.07-.74-.12-7.14-2.5-14.15-7.05-16.47-14.16-.47-1.43-.55-1.31,.87-1.32Z"></path></g></g></g></g></svg>